<mxfile host="app.diagrams.net" modified="2022-02-11T09:50:15.270Z" agent="5.0 (Windows NT 10.0; Win64; x64) AppleWebKit/537.36 (KHTML, like Gecko) Chrome/87.0.4280.141 Safari/537.36" etag="ZSuWRw8GoV_MlFiAr0w4" version="16.5.4" type="github">
  <diagram id="Z1-f5TAoEP9OV7cDx4_v" name="Page-1">
    <mxGraphModel dx="1422" dy="849" grid="1" gridSize="10" guides="1" tooltips="1" connect="1" arrows="1" fold="1" page="1" pageScale="1" pageWidth="827" pageHeight="1169" math="0" shadow="0">
      <root>
        <mxCell id="0" />
        <mxCell id="1" parent="0" />
        <mxCell id="lHg3y_46yC8aJabjndZl-2" value="system_memory" style="html=1;" vertex="1" parent="1">
          <mxGeometry x="359" y="100" width="110" height="50" as="geometry" />
        </mxCell>
      </root>
    </mxGraphModel>
  </diagram>
</mxfile>
